# xmcd CD database file
#
# Track frame offsets:
#	150
#	17813
#	34068
#	51285
#	62696
#	74013
#	93906
#	109045
#	125950
#	140421
#	154738
#	174542
#	188599
#	206371
#	221814
#
# Disc length: 3140 seconds
#
# Revision: 0
# Processed by: cddbd v1.5.2PL0 Copyright (c) Steve Scherf et al.
# Submitted via: CDex 1.78
#
DISCID=de0c420f
DTITLE=Rima Khcheich - Washwishni
DYEAR=2016
DGENRE=Arabic
TTITLE0=Atamanna
TTITLE1=Ijani Ittisal
TTITLE2=Washwishni
TTITLE3='Indi Ihssas
TTITLE4=El Shams
TTITLE5=Min Bayn Thiba
TTITLE6=Wayn Ma Kan
TTITLE7=W Ana Natra
TTITLE8=Wa'ti Assir
TTITLE9=Ma Fik T'oud
TTITLE10=Omar El Khayyam
TTITLE11=Lahin Wa Khaliyyou El Bal
TTITLE12=Ta'a Bous
TTITLE13=Hal Helou
TTITLE14=Ktab
EXTD=YEAR: 2016
EXTT0=
EXTT1=
EXTT2=
EXTT3=
EXTT4=
EXTT5=
EXTT6=
EXTT7=
EXTT8=
EXTT9=
EXTT10=
EXTT11=
EXTT12=
EXTT13=
EXTT14=
PLAYORDER=
